<?xml version="1.0" encoding="UTF-8"?>
<!DOCTYPE svg  PUBLIC '-//W3C//DTD SVG 1.1//EN'  'http://www.w3.org/Graphics/SVG/1.1/DTD/svg11.dtd'>
<svg enable-background="new 0 0 800 800" version="1.1" viewBox="0 0 800 800" xml:space="preserve" xmlns="http://www.w3.org/2000/svg">
		<path d="m395.3 317.6l-129.5 77.8c1.6-49.1 29.6-91.5 70.2-113.5l59.3 35.7z"/>
		<path d="m470.2 285.4l-1.2 69.3-132.1-73.3c18.8-10 40.3-15.7 63.1-15.7 25.7 0 49.8 7.2 70.2 19.7z"/>
		<path d="m534.3 400v3.4l-60.6 33.6-2.6-151c38 23.7 63.2 65.9 63.2 114z"/>
		<path d="m534.3 404.5c-1.6 49.2-29.7 91.8-70.5 113.8l-59.2-35.7 129.7-78.1z"/>
		<path d="m462.9 518.8c-18.8 10-40.2 15.6-62.9 15.6-25.7 0-49.8-7.2-70.2-19.8l1.2-69.3 131.9 73.5z"/>
		<path d="m328.9 514c-38-23.7-63.3-65.9-63.3-114v-3.5l60.6-33.6 2.7 151.1z"/>
	<path d="m326.3 362.9l2.7 151.1c-38-23.7-63.3-65.9-63.3-114v-3.5l60.6-33.6z" fill="none" stroke="#000" stroke-miterlimit="10" stroke-width="2"/>
	<path d="m395.3 317.6l-129.5 77.8c1.6-49.1 29.6-91.5 70.2-113.5l59.3 35.7z" fill="none" stroke="#000" stroke-miterlimit="10" stroke-width="2"/>
	<path d="m331 445.3l131.9 73.4c-18.8 10-40.2 15.6-62.9 15.6-25.7 0-49.8-7.2-70.2-19.8l1.2-69.2z" fill="none" stroke="#000" stroke-miterlimit="10" stroke-width="2"/>
	<path d="m469 354.7l-132.1-73.3c18.8-10 40.3-15.7 63.1-15.7 25.7 0 49.8 7.2 70.2 19.8l-1.2 69.2z" fill="none" stroke="#000" stroke-miterlimit="10" stroke-width="2"/>
	<path d="m404.6 482.5l129.7-78c-1.6 49.2-29.7 91.8-70.5 113.8l-59.2-35.8z" fill="none" stroke="#000" stroke-miterlimit="10" stroke-width="2"/>
	<path d="m534.3 400v3.4l-60.6 33.6-2.6-151c38 23.7 63.2 65.9 63.2 114z" fill="none" stroke="#000" stroke-miterlimit="10" stroke-width="2"/>
	<radialGradient id="a" cx="400" cy="400" r="159.92" gradientUnits="userSpaceOnUse">
		<stop offset=".021505"/>
		<stop offset=".9409"/>
		<stop stop-color="#808285" offset="1"/>
	</radialGradient>
	<path d="m400 240.1c-88.2 0-159.9 71.7-159.9 159.9s71.7 159.9 159.9 159.9 159.9-71.7 159.9-159.9-71.7-159.9-159.9-159.9zm0 301.8c-78.3 0-141.9-63.7-141.9-141.9s63.6-141.9 141.9-141.9 141.9 63.7 141.9 141.9-63.6 141.9-141.9 141.9z" fill="url(#a)"/>
	<path d="m400 262.1c-76.2 0-137.9 61.8-137.9 137.9s61.7 137.9 137.9 137.9 137.9-61.8 137.9-137.9-61.7-137.9-137.9-137.9zm0 3.6c25.7 0 49.8 7.2 70.2 19.8l-1.2 69.3-132.1-73.3c18.8-10.1 40.3-15.8 63.1-15.8zm-64.1 16.2l59.4 35.7-129.5 77.8c1.6-49 29.5-91.4 70.1-113.5zm-70.2 118.1v-3.5l60.6-33.6 2.7 151.1c-38.1-23.7-63.3-65.9-63.3-114zm134.3 134.3c-25.7 0-49.8-7.2-70.2-19.8l1.2-69.3 131.9 73.4c-18.8 10.1-40.2 15.7-62.9 15.7zm63.8-16l-59.2-35.7 129.7-78c-1.6 49.1-29.7 91.6-70.5 113.7zm9.9-81.3l-2.6-151c38 23.7 63.2 65.9 63.2 114v3.4l-60.6 33.6z" fill="#fff"/>
</svg>
